# xmcd
#
# Track frame offsets:
#	150
#	13017
#	22182
#	38557
#	53435
#	66484
#	78586
#	95323
#	110356
#	122863
#	134881
#	149033
#	162494
#	176935
#	193770
#	207711
#	220030
#	232840
#	243183
#	256344
#	268990
#	283154
#	296186
#
# Disc length: 4105 seconds
#
# Revision: 0
# Processed by: cddbd v1.5.2PL0 Copyright (c) Steve Scherf et al.
# Submitted via: audiograbber 1.83.01
#
DISCID=73100717
DTITLE=Various Artist - Midnight Steppers (Disc2)
DYEAR=2013
DGENRE=R&B
TTITLE0=Meade Lux Lewis - Honky Tonk Train Blues
TTITLE1=Albert Ammons, Pete Johnson And Meade Lux Lewis - Boogie Woogie Prayer
TTITLE2=Albert Ammons - Boogie Woogie Stomp
TTITLE3=Pete Johnson - B And O Blues
TTITLE4=Cripple Clarence Lofton - Pine Top's Boogie Woogie
TTITLE5=Jimmy Yancey - State Street Special
TTITLE6=Albert Ammons - Boogie Woogie Blues
TTITLE7=Pete Johnson - Climbin' And Screamin'
TTITLE8=Montana Taylor - Indiana Avenue Stomp
TTITLE9=Pete Johnson And Albert Ammons - Pine Creek
TTITLE10=Cripple Clarence Lofton - I Don't Know
TTITLE11=Albert Ammons - Albert's Special Boogie
TTITLE12=Pete Johnson - Blues On The Down Beat
TTITLE13=Meade Lux Lewis - Rising Tide Blues
TTITLE14=Jimmy Yancey - At The Window
TTITLE15=Cripple Clarence Lofton - In De Mornin'
TTITLE16=Pete Johnson - Kaycee Feeling
TTITLE17=Montana Taylor - Five O'Clocks
TTITLE18=Cripple Clarence Lofton - Had A Dream
TTITLE19=Jimmy Yancey - Yancey Stomp
TTITLE20=Jimmy Yancey - Jimmy's Rocks
TTITLE21=Albert Ammons - Roses Of Picardy
TTITLE22=Albert Ammons - Lady Be Good
EXTD=
EXTT0=
EXTT1=
EXTT2=
EXTT3=
EXTT4=
EXTT5=
EXTT6=
EXTT7=
EXTT8=
EXTT9=
EXTT10=
EXTT11=
EXTT12=
EXTT13=
EXTT14=
EXTT15=
EXTT16=
EXTT17=
EXTT18=
EXTT19=
EXTT20=
EXTT21=
EXTT22=
PLAYORDER=
